<svg xmlns="http://www.w3.org/2000/svg" xmlns:xlink="http://www.w3.org/1999/xlink" width="600" zoomAndPan="magnify" viewBox="0 0 450 225" height="300" preserveAspectRatio="xMidYMid meet" version="1.0"><defs><g/><clipPath id="0290b0bda4"><path d="M 143.324219 0 L 306.824219 0 L 306.824219 190.5 L 143.324219 190.5 Z M 143.324219 0 " clip-rule="nonzero"/></clipPath><clipPath id="115ce26253"><rect x="0" width="450" y="0" height="56"/></clipPath></defs><rect x="-45" width="540" fill="#ffffff" y="-22.5" height="270" fill-opacity="1"/><rect x="-45" width="540" fill="#000000" y="-22.5" height="270" fill-opacity="1"/><g clip-path="url(#0290b0bda4)"><path fill="#000000" d="M 226.953125 190.582031 C 244.683594 190.410156 306.65625 131.917969 306.65625 131.917969 C 292.753906 119.148438 277.488281 113.324219 272.382812 111.625 C 269.867188 95.289062 277.945312 83.097656 277.945312 64.878906 C 277.945312 28.117188 237.46875 -0.0078125 225 -0.0078125 C 213.074219 -0.0078125 169.910156 28.117188 169.910156 64.878906 C 169.910156 83.097656 178.433594 98.09375 177.613281 111.625 C 172.507812 113.324219 157.242188 119.148438 143.339844 131.917969 C 143.339844 131.917969 208.453125 190.761719 226.953125 190.582031 " fill-opacity="1" fill-rule="nonzero"/></g><path fill="#ffffff" d="M 225 50.546875 C 195.519531 50.546875 184.890625 51.292969 184.890625 76.613281 C 184.890625 117.839844 225 134.019531 225 134.019531 C 225 134.019531 259.367188 119.066406 259.367188 76.613281 C 259.367188 51.292969 248.476562 50.546875 225 50.546875 " fill-opacity="1" fill-rule="nonzero"/><path fill="#ffffff" d="M 178.441406 78.839844 C 178.441406 78.839844 179.308594 103.289062 196.367188 119.273438 C 196.367188 119.273438 178.078125 114.21875 178.441406 78.839844 " fill-opacity="1" fill-rule="nonzero"/><path fill="#22aa22" d="M 199.34375 73.742188 L 216.96875 79.878906 L 208.15625 82.042969 Z M 225 98.953125 L 225 66.925781 C 207.457031 62.292969 194.546875 69.546875 189.644531 73.03125 C 189.625 73.722656 195.792969 104.726562 211.746094 118.347656 C 219.75 125.179688 225 125.304688 225 125.304688 L 225 107.308594 L 217.5 110.539062 L 209.996094 96.578125 L 218.683594 105.265625 L 225 98.953125 " fill-opacity="1" fill-rule="nonzero"/><path fill="#ffffff" d="M 184.890625 116.929688 C 184.890625 116.929688 197.078125 138.386719 225 143.316406 C 225 143.316406 200.4375 143.898438 182.171875 126.5 L 167.964844 135.777344 L 187.101562 161.875 L 152.015625 132.589844 C 152.015625 132.589844 168.769531 116.984375 184.890625 116.929688 " fill-opacity="1" fill-rule="nonzero"/><path fill="#ffffff" d="M 270.117188 70.769531 C 270.117188 70.769531 277.285156 40.0625 236.597656 18.3125 L 245.554688 18.3125 C 234.941406 8.726562 222.128906 6.984375 222.128906 6.984375 C 222.128906 6.984375 178.515625 22.503906 173.253906 67.671875 C 173.253906 67.671875 180.527344 44.25 203.566406 32.203125 C 194.328125 40.484375 192.011719 50.542969 192.011719 50.542969 C 201.71875 37.144531 222.128906 39.804688 222.128906 39.804688 C 222.128906 39.804688 253.78125 37.828125 260.394531 58.742188 C 260.394531 58.742188 258.09375 35.199219 230.972656 32.386719 C 230.972656 32.386719 265.058594 28.914062 270.117188 70.769531 " fill-opacity="1" fill-rule="nonzero"/><g transform="matrix(1, 0, 0, 1, 0, 162)"><g clip-path="url(#115ce26253)"><g fill="#ffffff" fill-opacity="1"><g transform="translate(0.0411297, 45.225367)"><g><path d="M 9.296875 0 L 1.859375 0 L 1.859375 -33.46875 C 1.859375 -34.488281 2.222656 -35.363281 2.953125 -36.09375 C 3.679688 -36.820312 4.554688 -37.1875 5.578125 -37.1875 C 6.597656 -37.1875 7.484375 -36.816406 8.234375 -36.078125 L 31.609375 -12.6875 L 31.609375 -37.1875 L 39.046875 -37.1875 L 39.046875 -3.71875 C 39.046875 -2.695312 38.679688 -1.820312 37.953125 -1.09375 C 37.222656 -0.363281 36.347656 0 35.328125 0 C 34.304688 0 33.421875 -0.367188 32.671875 -1.109375 L 9.296875 -24.5 Z M 9.296875 0 "/></g></g></g><g fill="#ffffff" fill-opacity="1"><g transform="translate(40.940392, 45.225367)"><g><path d="M 31.609375 0 L 9.296875 0 C 7.929688 0 6.679688 -0.332031 5.546875 -1 C 4.421875 -1.664062 3.523438 -2.5625 2.859375 -3.6875 C 2.191406 -4.820312 1.859375 -6.070312 1.859375 -7.4375 L 1.859375 -29.75 C 1.859375 -31.113281 2.191406 -32.359375 2.859375 -33.484375 C 3.523438 -34.617188 4.421875 -35.519531 5.546875 -36.1875 C 6.679688 -36.851562 7.929688 -37.1875 9.296875 -37.1875 L 31.609375 -37.1875 C 32.972656 -37.1875 34.21875 -36.851562 35.34375 -36.1875 C 36.476562 -35.519531 37.378906 -34.617188 38.046875 -33.484375 C 38.710938 -32.359375 39.046875 -31.113281 39.046875 -29.75 L 39.046875 -7.4375 C 39.046875 -6.101562 38.710938 -4.867188 38.046875 -3.734375 C 37.378906 -2.609375 36.488281 -1.703125 35.375 -1.015625 C 34.257812 -0.335938 33.003906 0 31.609375 0 Z M 9.296875 -29.75 L 9.296875 -7.4375 L 31.609375 -7.4375 L 31.609375 -29.75 Z M 9.296875 -29.75 "/></g></g></g><g fill="#ffffff" fill-opacity="1"><g transform="translate(81.839654, 45.225367)"><g><path d="M 31.609375 0 L 9.296875 0 C 7.929688 0 6.679688 -0.332031 5.546875 -1 C 4.421875 -1.664062 3.523438 -2.5625 2.859375 -3.6875 C 2.191406 -4.820312 1.859375 -6.070312 1.859375 -7.4375 L 1.859375 -29.75 C 1.859375 -31.113281 2.191406 -32.359375 2.859375 -33.484375 C 3.523438 -34.617188 4.421875 -35.519531 5.546875 -36.1875 C 6.679688 -36.851562 7.929688 -37.1875 9.296875 -37.1875 L 31.609375 -37.1875 C 32.972656 -37.1875 34.21875 -36.851562 35.34375 -36.1875 C 36.476562 -35.519531 37.378906 -34.617188 38.046875 -33.484375 C 38.710938 -32.359375 39.046875 -31.113281 39.046875 -29.75 L 39.046875 -7.4375 C 39.046875 -6.101562 38.710938 -4.867188 38.046875 -3.734375 C 37.378906 -2.609375 36.488281 -1.703125 35.375 -1.015625 C 34.257812 -0.335938 33.003906 0 31.609375 0 Z M 9.296875 -29.75 L 9.296875 -7.4375 L 31.609375 -7.4375 L 31.609375 -29.75 Z M 9.296875 -29.75 "/></g></g></g><g fill="#ffffff" fill-opacity="1"><g transform="translate(122.738916, 45.225367)"><g><path d="M 39.046875 -29.75 L 39.046875 -22.3125 C 39.046875 -21.289062 38.679688 -20.414062 37.953125 -19.6875 C 37.222656 -18.957031 36.347656 -18.59375 35.328125 -18.59375 C 36.347656 -18.59375 37.222656 -18.226562 37.953125 -17.5 C 38.679688 -16.769531 39.046875 -15.894531 39.046875 -14.875 L 39.046875 -7.4375 C 39.046875 -6.101562 38.710938 -4.867188 38.046875 -3.734375 C 37.378906 -2.609375 36.488281 -1.703125 35.375 -1.015625 C 34.257812 -0.335938 33.003906 0 31.609375 0 L 1.859375 0 L 1.859375 -37.1875 L 31.609375 -37.1875 C 33.003906 -37.1875 34.257812 -36.84375 35.375 -36.15625 C 36.488281 -35.476562 37.378906 -34.582031 38.046875 -33.46875 C 38.710938 -32.351562 39.046875 -31.113281 39.046875 -29.75 Z M 31.609375 -29.75 L 9.296875 -29.75 L 9.296875 -22.3125 L 31.609375 -22.3125 Z M 9.296875 -7.4375 L 31.609375 -7.4375 L 31.609375 -14.875 L 9.296875 -14.875 Z M 9.296875 -7.4375 "/></g></g></g><g fill="#ffffff" fill-opacity="1"><g transform="translate(163.638178, 45.225367)"><g/></g></g><g fill="#ffffff" fill-opacity="1"><g transform="translate(184.087809, 45.225367)"><g><path d="M 39.046875 -37.1875 L 39.046875 -29.75 L 24.171875 -29.75 L 24.171875 0 L 16.734375 0 L 16.734375 -29.75 L 1.859375 -29.75 L 1.859375 -37.1875 Z M 39.046875 -37.1875 "/></g></g></g><g fill="#ffffff" fill-opacity="1"><g transform="translate(224.987071, 45.225367)"><g><path d="M 31.609375 0 L 9.296875 0 C 7.929688 0 6.679688 -0.332031 5.546875 -1 C 4.421875 -1.664062 3.523438 -2.5625 2.859375 -3.6875 C 2.191406 -4.820312 1.859375 -6.070312 1.859375 -7.4375 L 1.859375 -29.75 C 1.859375 -31.113281 2.191406 -32.359375 2.859375 -33.484375 C 3.523438 -34.617188 4.421875 -35.519531 5.546875 -36.1875 C 6.679688 -36.851562 7.929688 -37.1875 9.296875 -37.1875 L 31.609375 -37.1875 C 32.972656 -37.1875 34.21875 -36.851562 35.34375 -36.1875 C 36.476562 -35.519531 37.378906 -34.617188 38.046875 -33.484375 C 38.710938 -32.359375 39.046875 -31.113281 39.046875 -29.75 L 39.046875 -7.4375 C 39.046875 -6.101562 38.710938 -4.867188 38.046875 -3.734375 C 37.378906 -2.609375 36.488281 -1.703125 35.375 -1.015625 C 34.257812 -0.335938 33.003906 0 31.609375 0 Z M 9.296875 -29.75 L 9.296875 -7.4375 L 31.609375 -7.4375 L 31.609375 -29.75 Z M 9.296875 -29.75 "/></g></g></g><g fill="#ffffff" fill-opacity="1"><g transform="translate(265.886333, 45.225367)"><g/></g></g><g fill="#ffffff" fill-opacity="1"><g transform="translate(286.335963, 45.225367)"><g><path d="M 39.046875 -29.75 L 39.046875 -22.3125 C 39.046875 -20.945312 38.710938 -19.695312 38.046875 -18.5625 C 37.378906 -17.4375 36.476562 -16.539062 35.34375 -15.875 C 34.21875 -15.207031 32.972656 -14.875 31.609375 -14.875 L 24.171875 -14.875 L 31.609375 -7.4375 L 39.046875 -7.4375 L 39.046875 0 L 30.125 0 C 29.070312 0 28.171875 -0.367188 27.421875 -1.109375 L 13.671875 -14.875 L 9.296875 -14.875 L 9.296875 0 L 1.859375 0 L 1.859375 -37.1875 L 31.609375 -37.1875 C 32.972656 -37.1875 34.21875 -36.851562 35.34375 -36.1875 C 36.476562 -35.519531 37.378906 -34.617188 38.046875 -33.484375 C 38.710938 -32.359375 39.046875 -31.113281 39.046875 -29.75 Z M 31.609375 -29.75 L 9.296875 -29.75 L 9.296875 -22.3125 L 31.609375 -22.3125 Z M 31.609375 -29.75 "/></g></g></g><g fill="#ffffff" fill-opacity="1"><g transform="translate(327.235225, 45.225367)"><g><path d="M 31.609375 0 L 9.296875 0 C 7.929688 0 6.679688 -0.332031 5.546875 -1 C 4.421875 -1.664062 3.523438 -2.5625 2.859375 -3.6875 C 2.191406 -4.820312 1.859375 -6.070312 1.859375 -7.4375 L 1.859375 -29.75 C 1.859375 -31.113281 2.191406 -32.359375 2.859375 -33.484375 C 3.523438 -34.617188 4.421875 -35.519531 5.546875 -36.1875 C 6.679688 -36.851562 7.929688 -37.1875 9.296875 -37.1875 L 31.609375 -37.1875 C 32.972656 -37.1875 34.21875 -36.851562 35.34375 -36.1875 C 36.476562 -35.519531 37.378906 -34.617188 38.046875 -33.484375 C 38.710938 -32.359375 39.046875 -31.113281 39.046875 -29.75 L 39.046875 -7.4375 C 39.046875 -6.101562 38.710938 -4.867188 38.046875 -3.734375 C 37.378906 -2.609375 36.488281 -1.703125 35.375 -1.015625 C 34.257812 -0.335938 33.003906 0 31.609375 0 Z M 9.296875 -29.75 L 9.296875 -7.4375 L 31.609375 -7.4375 L 31.609375 -29.75 Z M 9.296875 -29.75 "/></g></g></g><g fill="#ffffff" fill-opacity="1"><g transform="translate(368.134487, 45.225367)"><g><path d="M 31.609375 0 L 9.296875 0 C 7.929688 0 6.679688 -0.332031 5.546875 -1 C 4.421875 -1.664062 3.523438 -2.5625 2.859375 -3.6875 C 2.191406 -4.820312 1.859375 -6.070312 1.859375 -7.4375 L 1.859375 -29.75 C 1.859375 -31.113281 2.191406 -32.359375 2.859375 -33.484375 C 3.523438 -34.617188 4.421875 -35.519531 5.546875 -36.1875 C 6.679688 -36.851562 7.929688 -37.1875 9.296875 -37.1875 L 31.609375 -37.1875 C 32.972656 -37.1875 34.21875 -36.851562 35.34375 -36.1875 C 36.476562 -35.519531 37.378906 -34.617188 38.046875 -33.484375 C 38.710938 -32.359375 39.046875 -31.113281 39.046875 -29.75 L 39.046875 -7.4375 C 39.046875 -6.101562 38.710938 -4.867188 38.046875 -3.734375 C 37.378906 -2.609375 36.488281 -1.703125 35.375 -1.015625 C 34.257812 -0.335938 33.003906 0 31.609375 0 Z M 9.296875 -29.75 L 9.296875 -7.4375 L 31.609375 -7.4375 L 31.609375 -29.75 Z M 9.296875 -29.75 "/></g></g></g><g fill="#ffffff" fill-opacity="1"><g transform="translate(409.03375, 45.225367)"><g><path d="M 39.046875 -37.1875 L 39.046875 -29.75 L 24.171875 -29.75 L 24.171875 0 L 16.734375 0 L 16.734375 -29.75 L 1.859375 -29.75 L 1.859375 -37.1875 Z M 39.046875 -37.1875 "/></g></g></g></g></g></svg>